<svg width="118" height="20" viewBox="0 0 118 20" fill="none" xmlns="http://www.w3.org/2000/svg">
  <path
    d="M117.78 16.4587H115.608V14.8788C115.261 15.3695 114.824 15.7884 114.297 16.1355C113.783 16.4826 113.142 16.6562 112.376 16.6562C111.814 16.6562 111.269 16.5485 110.743 16.333C110.216 16.1176 109.749 15.8004 109.342 15.3815C108.935 14.9506 108.606 14.43 108.355 13.8196C108.103 13.2091 107.978 12.509 107.978 11.719C107.978 10.9291 108.097 10.2289 108.337 9.61849C108.588 9.00808 108.917 8.49341 109.324 8.0745C109.731 7.64362 110.198 7.32046 110.725 7.10502C111.263 6.88958 111.814 6.78186 112.376 6.78186C113.154 6.78186 113.801 6.94943 114.315 7.28456C114.83 7.61969 115.261 8.00868 115.608 8.45152V4.54967C115.608 3.88865 116.144 3.35278 116.805 3.35278H117.78V16.4587ZM115.644 11.719C115.644 11.2522 115.566 10.8333 115.41 10.4623C115.267 10.0913 115.069 9.77408 114.818 9.51077C114.567 9.23548 114.273 9.02603 113.938 8.8824C113.603 8.73878 113.256 8.66696 112.897 8.66696C112.526 8.66696 112.173 8.73878 111.838 8.8824C111.515 9.01406 111.227 9.21155 110.976 9.47486C110.725 9.73818 110.527 10.0613 110.384 10.4443C110.24 10.8154 110.168 11.2403 110.168 11.719C110.168 12.1858 110.24 12.6107 110.384 12.9937C110.527 13.3647 110.725 13.6819 110.976 13.9452C111.227 14.2086 111.515 14.412 111.838 14.5556C112.173 14.6993 112.526 14.7711 112.897 14.7711C113.256 14.7711 113.603 14.6993 113.938 14.5556C114.273 14.412 114.567 14.2086 114.818 13.9452C115.069 13.67 115.267 13.3468 115.41 12.9758C115.566 12.6047 115.644 12.1858 115.644 11.719Z"
    fill="currentColor"></path>
  <path
    d="M99.7368 11.109V16.5787H97.5645V6.97971H99.7368V8.45188C99.8924 8.22448 100.06 8.01502 100.239 7.82352C100.431 7.62005 100.646 7.44051 100.886 7.28492C101.137 7.12932 101.406 7.00964 101.694 6.92585C101.993 6.8301 102.328 6.78223 102.699 6.78223C103.776 6.78223 104.608 7.11137 105.195 7.76966C105.781 8.42795 106.074 9.31364 106.074 10.4267V16.5787H105.099C104.438 16.5787 103.902 16.0429 103.902 15.3819V11.0731C103.902 10.331 103.722 9.76248 103.363 9.3675C103.016 8.96056 102.52 8.75709 101.873 8.75709C101.239 8.75709 100.724 8.96655 100.329 9.38546C99.9343 9.7924 99.7368 10.3669 99.7368 11.109Z"
    fill="currentColor"></path>
  <path d="M95.1706 16.578H92.8965V7.00293H95.1706V16.578Z" fill="currentColor"></path>
  <path
    d="M84.5204 12.7484C84.6002 12.7484 84.6748 12.7086 84.7193 12.6422L88.199 7.44617V16.5784H90.4073V3.77173H88.0554L84.2314 9.83396L80.4073 3.77173H78.0554V16.5784H80.2278V7.48208L83.6729 12.6419C83.7173 12.7084 83.792 12.7484 83.872 12.7484H84.5204Z"
    fill="currentColor"></path>
  <path
    d="M93.9141 5.61491H94.0338C94.6618 5.61491 95.1709 5.10583 95.1709 4.47786C95.1709 3.84989 94.6618 3.34082 94.0338 3.34082H93.9141C93.2862 3.34082 92.7771 3.84989 92.7771 4.47786C92.7771 5.10583 93.2862 5.61491 93.9141 5.61491Z"
    fill="currentColor"></path>
  <path
    d="M72.4127 12.3295V6.97937H74.5851V16.5784H73.6096C72.9486 16.5784 72.4127 16.0425 72.4127 15.3815V14.9865C72.1015 15.4414 71.7125 15.8363 71.2457 16.1715C70.779 16.4946 70.1805 16.6562 69.4504 16.6562C68.3732 16.6562 67.5414 16.3271 66.9549 15.6688C66.3684 15.0105 66.0752 14.1248 66.0752 13.0117V6.97937H67.0507C67.7117 6.97937 68.2475 7.51523 68.2475 8.17626V12.3654C68.2475 13.1074 68.4211 13.6819 68.7682 14.0889C69.1273 14.4839 69.63 14.6813 70.2763 14.6813C70.9106 14.6813 71.4253 14.4779 71.8203 14.0709C72.2152 13.652 72.4127 13.0715 72.4127 12.3295Z"
    fill="currentColor"></path>
  <path
    d="M63.8126 11.7194C63.8126 12.4016 63.6817 13.0419 63.4198 13.6404C63.1698 14.2388 62.8186 14.7655 62.3662 15.2203C61.9257 15.6631 61.3959 16.0162 60.7768 16.2795C60.1578 16.5428 59.4851 16.6745 58.7589 16.6745C58.0446 16.6745 57.3779 16.5488 56.7589 16.2975C56.1517 16.0342 55.6219 15.6811 55.1695 15.2382C54.7291 14.7834 54.3838 14.2628 54.1338 13.6763C53.8838 13.0779 53.7588 12.4375 53.7588 11.7553C53.7588 11.0731 53.8838 10.4327 54.1338 9.83429C54.3957 9.22388 54.7469 8.69725 55.1874 8.2544C55.6398 7.79958 56.1696 7.44051 56.7767 7.1772C57.3958 6.91388 58.0684 6.78223 58.7946 6.78223C59.5209 6.78223 60.1875 6.91388 60.7947 7.1772C61.4138 7.42855 61.9435 7.78163 62.384 8.23644C62.8364 8.67929 63.1876 9.19994 63.4376 9.79838C63.6876 10.3968 63.8126 11.0372 63.8126 11.7194ZM61.6519 11.7553C61.6519 11.3364 61.5804 10.9414 61.4376 10.5704C61.2947 10.1993 61.0923 9.87618 60.8304 9.6009C60.5804 9.31364 60.2768 9.09222 59.9197 8.93662C59.5744 8.76906 59.1875 8.68528 58.7589 8.68528C58.3303 8.68528 57.9375 8.76906 57.5803 8.93662C57.2351 9.09222 56.9374 9.30766 56.6874 9.58294C56.4374 9.85823 56.247 10.1814 56.116 10.5524C55.985 10.9115 55.9196 11.3005 55.9196 11.7194C55.9196 12.1383 55.991 12.5393 56.1339 12.9223C56.2767 13.2933 56.4732 13.6165 56.7232 13.8917C56.9851 14.167 57.2887 14.3884 57.6339 14.556C57.9911 14.7116 58.378 14.7894 58.7946 14.7894C59.2351 14.7894 59.628 14.7116 59.9732 14.556C60.3304 14.3884 60.634 14.167 60.884 13.8917C61.134 13.6165 61.3245 13.2993 61.4554 12.9402C61.5864 12.5692 61.6519 12.1742 61.6519 11.7553Z"
    fill="currentColor"></path>
  <path
    d="M48.9711 11.4498V16.5784H46.7449V11.5036L41.7539 3.77173H43.6903C44.1049 3.77173 44.4899 3.98622 44.7081 4.3387L47.876 9.45694L51.0791 4.33407C51.2979 3.98424 51.6814 3.77173 52.094 3.77173H53.9622L48.9711 11.4498Z"
    fill="currentColor"></path>
  <path fill-rule="evenodd" clip-rule="evenodd"
    d="M5.33333 4.06667C5.33333 1.82071 3.51262 0 1.26667 0H0V13.8333C0 17.2391 2.7609 20 6.16667 20C9.57243 20 12.3333 17.2391 12.3333 13.8333V12.0333H12.3337V6.73333C12.3337 4.85557 13.8559 3.33333 15.7337 3.33333C17.6114 3.33333 19.1337 4.85557 19.1337 6.73333V17.3333C19.1337 18.8061 20.3276 20 21.8003 20H24.7337V7.03333C24.7337 3.14893 21.5847 0 17.7003 0C13.8159 0 10.667 3.14893 10.667 7.03333V8.01667H10.6667V14C10.6667 15.4728 9.47275 16.6667 8 16.6667C6.52725 16.6667 5.33333 15.4728 5.33333 14V4.06667ZM25.5869 3.4913C27.2187 4.77285 28.3003 6.76385 28.3003 8.99967V17.333C28.3003 18.8058 29.4942 19.9997 30.967 19.9997H33.3336V9.66634C33.3336 9.44118 33.3219 9.21877 33.299 8.99967C32.9658 5.81523 30.2729 3.33301 27.0003 3.33301C26.5435 3.33301 26.0981 3.38136 25.6688 3.47322C25.6414 3.47907 25.6141 3.4851 25.5869 3.4913Z"
    fill="currentColor"></path>
</svg>